<?xml version="1.0" encoding="utf-8"?>
<!-- Generator: Adobe Illustrator 27.5.0, SVG Export Plug-In . SVG Version: 6.00 Build 0)  -->
<svg version="1.1" xmlns="http://www.w3.org/2000/svg" xmlns:xlink="http://www.w3.org/1999/xlink" x="0px" y="0px"
	 viewBox="0 0 1000 800" style="enable-background:new 0 0 1000 800;" xml:space="preserve">
<g id="background">
	<rect x="0" y="0" style="fill:#F3FBFF;" width="1000" height="800"/>
</g>
<g id="object">
	<g>
		<g>
			<g>
				<g>
					<polygon style="fill:#EECCBB;" points="790.851,324.063 792.586,312.862 797.373,313.47 797.872,321.43 800.253,320.658 
						797.609,330.044 792.558,330.089 					"/>
				</g>
				<g>
					<path style="fill:#353131;" d="M846.909,416.181c0.221-0.876,0.319-1.842,0.275-2.894c-0.182-4.363-2.434-8.458-5.404-11.673
						c-4.703-5.09-11.037-8.736-16.283-13.261c-6-5.176-12.001-10.353-18.001-15.529l-7.931-45.641l-10.012,0.607l-0.943,56.908
						c8.298,6.484,16.432,12.789,24.266,19.745c7.022,6.236,13.305,14.396,22.641,17.096
						C840.789,423.064,845.695,420.992,846.909,416.181z"/>
				</g>
			</g>
			<g>
				<g>
					<g>
						<polygon style="fill:#42495B;" points="875.627,529.762 879.513,556.501 871.714,707.312 858.633,704.569 836.931,533.12 
													"/>
					</g>
					<g>
						<polygon style="fill:#42495B;" points="811.367,524.74 808.839,624.719 834.233,711.023 849.034,705.519 836.568,628.553 
							848.014,523.886 						"/>
					</g>
					<g>
						<path style="fill:#353131;" d="M849.086,697.437l-17.72,8.122l5.948,12.39l-9.293,5.855c0,0-0.876,5.159,2.246,7.337
							c3.121,2.178,23.339-14.804,23.339-14.804L849.086,697.437z"/>
					</g>
					<g>
						<path style="fill:#353131;" d="M875.627,700.367l-19.22,3.246l2.53,13.509l-10.494,3.243c0,0-2.184,4.755,0.265,7.668
							c2.449,2.913,26.381-8.241,26.381-8.241L875.627,700.367z"/>
					</g>
				</g>
				<g>
					<path style="fill:#7D5A2F;" d="M838.266,361.694c1.37,4.449,3.335,8.714,5.827,12.647c0.059-8.169,1.246-16.33,3.518-24.177
						c0.173-0.599,0.345-1.277,0.031-1.815c-0.293-0.503-0.909-0.703-1.475-0.84C836.062,345.068,835.877,353.938,838.266,361.694z"
						/>
				</g>
				<g>
					<g>
						<path style="fill:#EECCBB;" d="M843.812,374.499c1.054,3.361,2.801,7.163,6.287,9.212c4.105,2.413,8.494,1.181,11.558-0.672
							c10.119-6.122,27.66-39.882,1.282-48.171C838.987,327.34,839.439,360.55,843.812,374.499z"/>
					</g>
					<g>
						<path style="fill:#7D5A2F;" d="M864.654,374.644c1.575,2.331,5.16,1.801,7.703,0.599c10.449-4.94,16.828-17.287,14.811-28.667
							c-1.687-9.523-13.461-16.918-16.16-5.236c-0.957,4.142,1.439,9.972,0.747,14.576
							C870.766,362.496,867.537,368.733,864.654,374.644z"/>
					</g>
					<g>
						<path style="fill:#7D5A2F;" d="M838.895,322.709c-12.011,6.644-17.381,21.273-28.366,29.504
							c9.87,4.526,21.599,4.817,31.682,0.785c9.889-3.954,33.338-6.35,30.272-20.052
							C869.362,318.999,849.42,316.888,838.895,322.709z"/>
					</g>
				</g>
				<g>
					<path style="fill:#353131;" d="M885.49,409.012c6.877,11.94,6.846,25.459,5.896,38.392c-2.15,29.278,0.639,63.224-9.455,91.212
						c-19.055-0.017-55.583-8.755-74.561-10.706c-3.698-25.454-1.544-40.335,0.542-69.158c1.028-14.212,3.234-33.278,8.265-46.816
						c4.118-11.084,15.097-25.397,31.669-24.941C863.375,387.422,879.236,398.154,885.49,409.012z"/>
				</g>
				<path style="fill:#EECCBB;" d="M854.453,392.904c-1.736,0.734-3.862,0.427-5.922-1.566c-1.772-1.715-1.226-2.275-0.85-4.802
					c0.555-3.725,1.545-7.431,2.313-11.121c0,0,10.257,2.133,10.26,2.134c-0.01-0.002-2.062,9.99-2.219,10.671
					C857.536,390.393,856.189,392.17,854.453,392.904z"/>
			</g>
			<g>
				<g>
					<polygon style="fill:#EECCBB;" points="901.517,322.633 897.044,310.466 891.813,312.228 893.05,321.266 890.206,320.938 
						895.289,330.865 900.963,329.776 					"/>
				</g>
				<g>
					<path style="fill:#353131;" d="M859.456,438.575c-0.445-0.932-0.773-1.993-0.962-3.182c-0.78-4.933,0.82-10.033,3.425-14.308
						c4.124-6.769,10.404-12.286,15.264-18.545c5.559-7.158,11.119-14.317,16.678-21.475l-1.41-52.965l11.363-1.579l13.904,63.596
						c-7.841,9.143-15.538,18.048-22.751,27.616c-6.466,8.577-11.668,19.145-21.528,24.28
						C867.871,444.911,861.902,443.696,859.456,438.575z"/>
				</g>
			</g>
		</g>
		<g>
			<g>
				<g>
					<g>
						<polygon style="fill:#DEC099;" points="659.995,698.181 659.959,713.242 668.7,713.263 668.739,696.565 						"/>
					</g>
					<g>
						<polygon style="fill:#DEC099;" points="699.721,695.963 701.449,712.237 710.893,711.235 708.978,693.193 						"/>
					</g>
				</g>
				<g>
					<path style="fill:#4C4646;" d="M710.759,710.69l-8.488,1.902l-2.701,2.43l-0.168,6.415l22.098,4.102l0,0
						c2.136-2.588,1.259-6.496-1.779-7.923l-1.002-0.471L710.759,710.69z"/>
				</g>
				<g>
					<path style="fill:#4C4646;" d="M668.7,713.263l-8.741-0.021l-3.063,4.027l0.611,6.388l22.432,1.391l0.644-1.457
						c1.265-2.863-0.572-6.139-3.675-6.553l-0.496-0.066L668.7,713.263z"/>
				</g>
			</g>
			<g>
				<g id="XMLID_101_">
					<polygon style="fill:#B9A280;" points="640.193,553.212 648.478,627.47 651.772,710.61 679.878,710.707 691.122,501.35 
						645.823,502.061 					"/>
				</g>
				<g id="XMLID_99_">
					<g id="XMLID_100_">
						<polygon style="fill:#B9A280;" points="724.051,543.328 730.147,615.769 722.428,710.481 695.138,709.666 691.199,617.634 
							686.58,551.561 681.86,502.312 714.536,501.374 						"/>
					</g>
				</g>
			</g>
			<g id="XMLID_98_">
				<polygon style="fill:#BEDBCA;" points="706.972,381.384 648.99,389.14 642.62,405.203 641.607,460.777 635.854,508.408 
					709.925,508.741 728.401,504.065 722.593,454.138 719.804,399.066 				"/>
			</g>
			<g>
				<g>
					<polygon style="fill:#78613B;" points="755.558,379.166 757.375,364.915 751.41,363.827 748.037,373.293 745.444,371.45 
						745.352,383.845 751.407,385.827 					"/>
				</g>
				<g>
					<polygon style="fill:#BEDBCA;" points="704.812,393.681 734.697,414.853 743.998,379.63 755.819,384.184 749.882,456.639 
						739.561,458.645 696.947,429.84 					"/>
				</g>
			</g>
			<g>
				<g>
					<path style="fill:#78613B;" d="M631.095,308.653c2.53-3.41,5.058-6.821,7.56-10.252c1.493,1.082,2.986,2.164,4.48,3.247
						c-1.194,2.746-2.386,5.493-3.58,8.24c0.913,0.177,1.828,0.346,2.741,0.524c-2.578,2.643-5.21,5.219-7.83,7.82
						c-1.689-0.88-3.361-1.802-5.078-2.626C629.967,313.295,630.623,310.988,631.095,308.653z"/>
				</g>
				<g>
					<path style="fill:#BEDBCA;" d="M657.626,419.853c0.531-0.951,0.74-2.12,0.811-3.296c0.297-4.875-1.271-9.604-4.078-13.487
						c-4.443-6.147-10.435-10.506-15.055-16.271c-5.285-6.595-9.612-13.546-14.045-20.68c2.747-17.115,6.656-33.398,12.805-49.627
						c-3.471-1.594-6.92-3.237-10.404-4.801c-11.581,19.4-19.358,39.515-26.963,60.697c6.672,9.928,13.202,19.609,20.616,29.104
						c6.646,8.512,12.861,17.87,22.859,22.622C649.817,426.797,654.709,425.076,657.626,419.853z"/>
				</g>
			</g>
			<g>
				<path style="fill:#78613B;" d="M675.986,384.217c0.232-1.072,0.464-2.144,0.696-3.215c-0.034-0.018-0.068-0.033-0.102-0.051
					c-5.943-3.136-9.506-9.715-10.304-16.357c-0.521-4.333-0.005-8.695,1.066-12.944c0.946-2.485,2.221-4.834,3.807-6.924
					c2.87-3.783,7.051-7.102,11.572-7.686c1.838-0.237,1.312,1.313,3.336-0.177c0.273-0.201,0.573-0.571,0.862-1.018
					c0.382,0.302,0.647,0.515,0.719,0.569c2.486,1.858,5.004,2.526,7.814,3.707c4.265,1.793,7.195,6.614,7.07,11.635
					c-0.051,2.077-0.557,4.291,0.247,6.141c0.702,1.616,2.242,2.556,3.34,3.877c0.641,0.772,1.116,1.694,1.426,2.683
					c-2.964,8.382-9.973,15.886-18.107,18.006c-0.002,0.031-0.004,0.063-0.006,0.094c-0.03,0.507-0.063,1.013-0.121,1.512
					c-0.256,2.217-1.328,4.691-3.509,5.213c-0.996,0.238-2.039,0.014-3.038-0.211c-2.017-0.453-4.035-0.906-6.052-1.359
					c-0.413-0.093-0.873-0.219-1.083-0.584c-0.184-0.322-0.111-0.721-0.033-1.083C675.722,385.437,675.854,384.827,675.986,384.217z
					"/>
			</g>
			<g>
				<path style="fill:#3D3935;" d="M626.441,337.376c4.428-1.006,8.813,0.961,12.865,2.886c-0.077-4.506,3.655-8.234,7.52-10.091
					c3.865-1.857,8.141-2.553,11.855-4.761c4.465-2.654,8.499-7.557,13.46-6.994c4.465,0.507,7.983,5.256,11.394,9.424
					c0.058-0.085,0.115-0.171,0.173-0.256c1.692-2.458,3.583-4.862,6.035-6.383c7.93-4.919,8.703,5.863,15.15,4.223
					c1.555-0.396,2.685-1.865,4.065-2.766c2.608-1.702,5.901-1.237,8.669-0.121c2.768,1.115,5.328,2.82,8.224,3.517
					c2.571,0.619,5.332,0.422,7.795,1.398c3.7,1.466,3.612,5.234,4.759,8.467c1.27,3.579,3.102,8.379,5.6,11.111
					c1.8,1.969,4.261,3.043,6.422,4.536c2.161,1.493,4.178,3.737,4.234,6.559c0.053,2.673-1.669,5.134-1.839,7.811
					c-0.181,3.99,0.583,6.003-0.506,10.111c-0.562,2.12-1.195,4.366-2.728,5.851c-2.02,1.956-4.992,2.021-7.617,1.675
					c-2.625-0.345-5.347-0.974-7.891-0.026c-5.515,2.056-4.274,7.636-5.593,12.392c-0.879,3.169-2.945,5.806-5.533,7.574
					c-3.323,2.27-7.508,3.106-11.149,1.796c-5.491-1.976-8.847-8.124-8.821-14.306c0.01-2.248,0.607-4.405,0.928-6.603
					c0.121-0.829,0.206-1.664,0.2-2.511c-0.019-2.987-1.857-7.062,0.778-9.522c0.642-0.599,1.48-0.932,2.052-1.609
					c0.462-0.548,0.704-1.269,0.846-1.986c0.285-1.443,0.178-2.944-0.251-4.312c-0.311-0.989-0.785-1.911-1.426-2.683
					c-1.099-1.321-2.638-2.262-3.34-3.877c-0.804-1.851-0.298-4.064-0.247-6.141c0.124-5.021-2.805-9.842-7.07-11.635
					c-2.81-1.181-5.328-1.849-7.814-3.707c-0.072-0.054-0.338-0.267-0.719-0.569c-0.289,0.447-0.588,0.817-0.862,1.018
					c-2.025,1.49-1.498-0.06-3.336,0.177c-4.521,0.584-8.702,3.903-11.572,7.686c-1.586,2.09-2.861,4.438-3.807,6.924
					c-1.685,4.427-2.312,9.294-1.696,13.944c0.881,6.643,4.788,8.993,2.738,16.172c-0.455,1.594-1.086,3.138-1.859,4.599
					c-2.115,3.998-5.328,7.362-9.177,9.319c-0.462,0.078-0.924,0.132-1.387,0.171c-2.322,0.195-4.644-0.091-6.851-0.787
					c-2.201-0.694-4.285-1.793-6.133-3.232c-2.774-2.159-5.019-5.077-6.337-8.516c-0.717-1.873-1.262-3.988-2.766-5.18
					c-1.211-0.959-2.848-1.138-4.079-2.068c-5.12-3.868,1.838-13.566-1.075-19.561c-1.842-3.789-7-4.536-8.729-8.391
					C618.061,343.817,622.013,338.382,626.441,337.376z"/>
			</g>
		</g>
		<g>
			<g>
				<path style="fill:#98C1D9;" d="M769.584,184.088c0,0-53.349,59.1-53.349,108.401c0,49.301,36.903,61.013,53.349,61.013
					c16.446,0,53.349-11.712,53.349-61.013C822.934,243.189,769.584,184.088,769.584,184.088z"/>
				<path style="opacity:0.47;fill:#FFFFFF;" d="M735.526,311.921c-0.007-0.035-0.014-0.071-0.022-0.106
					c-0.506-2.387-1.246-4.431-1.302-6.903c-0.082-3.594,0.006-7.191,0.238-10.779c0.478-7.393,1.562-14.741,3.072-21.991
					c3.095-14.854,7.947-29.319,13.787-43.307c2.626-6.29,5.463-12.492,8.484-18.602c1.426-2.885,2.893-5.749,4.4-8.592
					c0.39-0.736,4.672-7.856,4.433-8.098c-0.09-0.091-0.141-0.142-0.141-0.142s-48.072,59.255-45.582,106.437
					c0.161,3.048,0.469,6.09,0.95,9.104c0.231,1.446,0.501,2.885,0.814,4.315c0.269,1.23,0.095,2.466,0.749,3.584
					c1.083,1.853,3.125,3.109,5.267,3.24c1.889,0.115,3.56-0.472,4.279-2.258C735.701,315.957,735.922,313.896,735.526,311.921z"/>
			</g>
			<path style="opacity:0.47;fill:#FFFFFF;" d="M742.414,325.159c-0.904-0.887-2.201-1.438-3.472-1.438
				c-0.961,0-2.057,0.352-2.888,0.948c-1.926,1.112-2.887,3.263-2.368,5.559c0.756,3.348,4.811,4.69,7.62,3.052
				C744.18,331.602,744.847,327.546,742.414,325.159z"/>
		</g>
		<g>
			<g id="XMLID_95_">
				<g id="XMLID_97_">
					<polygon style="fill:#353131;" points="524.515,723.771 523.259,730.232 509.718,734.572 504.832,727.051 512.231,721.651 
						525.771,717.311 					"/>
				</g>
				<g id="XMLID_96_">
					<polygon style="fill:#42495B;" points="553.596,562.781 525.563,721.8 512.88,722.26 505.348,611.692 501.787,556.772 					"/>
				</g>
			</g>
			<g id="XMLID_92_">
				<g id="XMLID_94_">
					<polygon style="fill:#42495B;" points="591.951,561.091 573.933,716.961 562.305,717.988 550.002,598.549 540.243,563.337 
											"/>
				</g>
				<g id="XMLID_93_">
					<polygon style="fill:#353131;" points="562.246,716.506 562.818,723.21 575.965,728.803 581.681,721.545 574.821,715.396 					
						"/>
				</g>
			</g>
			<g>
				<polygon style="fill:#42495B;" points="504.832,565.647 499.096,547.284 504.832,526.45 591.951,529.483 591.951,561.091 				
					"/>
			</g>
		</g>
		<g>
			<g>
				<polygon style="fill:#DBBB92;" points="425.749,402.852 424.04,410.64 410.845,409.315 407.883,401.537 412.243,395.852 
					417.049,399.951 417.369,398.491 416.204,396.709 418.01,395.57 				"/>
			</g>
			<g>
				<g>
					<polygon style="fill:#486362;" points="522.81,382.705 473.137,406.359 424.236,399.311 421.095,411.089 477.625,429.259 
						550.705,404.912 					"/>
				</g>
			</g>
		</g>
		<g>
			<g>
				<g>
					<path style="fill:#DBBB92;" d="M551.248,336.529c-8.807,5.498-21.254,2.352-29.3,8.987c-5.232,4.314-7.17,12.03-5.931,18.926
						c0.578,3.214,1.82,6.395,4.039,8.727c1.44,1.513,3.237,2.615,5.115,3.445c2.512,1.11,5.201,1.716,7.909,1.844
						c-0.191,2.48-0.603,4.943-1.231,7.348c5.058-0.575,10.116-1.151,15.174-1.726c-0.321-2.958-0.642-5.916-0.964-8.874
						c1.233-0.739,2.405-1.588,3.479-2.567c6.491-5.919,9.312-15.863,6.983-24.613C555.431,343.927,553.342,340.192,551.248,336.529
						z"/>
				</g>
			</g>
			<g>
				<path style="fill:#6E6642;" d="M528.129,343.827c0.364-0.134,0.729-0.26,1.095-0.38c5.304-1.726,10.986-2.238,16.527-1.601
					c3.794,0.436,8.051,1.881,9.359,5.897c0.591,1.815,0.575,3.764,0.552,5.673c-0.028,2.391-0.056,4.782-0.085,7.174
					c-0.005,0.43-0.005,0.881,0.2,1.259c0.623,1.147,2.478,0.645,3.262-0.4c2.857-3.81,6.407-9.837,7.324-14.476
					c0.748-3.784-0.612-8.216,0.971-11.786c0.732-1.65,2.211-2.825,3.35-4.226c2.462-3.03,3.283-7.318,2.115-11.044
					c-0.749-2.389-2.347-4.585-4.604-5.668c-3.737-1.793-8.236-0.247-12.285-1.134c-2.054-0.45-3.943-1.521-6.017-1.872
					c-4.371-0.741-8.617,1.815-11.948,4.741c-3.331,2.926-6.345,6.403-10.413,8.166c-3.263,1.414-6.93,1.594-10.29,2.759
					c-5.605,1.943-10.082,6.691-12.024,12.297c-2.176,6.282-1.662,14.177,3.003,19.102c2.339,2.469,4.245,5.239,6.183,8.013
					c0.673,0.963,4.546,4.525,4.256,0.787c-0.225-2.901-1.384-5.671-1.59-8.574C516.57,351.459,521.892,346.132,528.129,343.827z"/>
			</g>
		</g>
		<g>
			<path style="fill:#486362;" d="M565.492,386.119l-42.132-3.513c0,0-13.889,18.1-29.181,70.17
				c-15.292,52.07-3.957,98.159-3.957,98.159s47.533-8.563,114.646-0.856l-19.553-129.198L565.492,386.119z"/>
		</g>
		<g>
			<g>
				<g id="XMLID_89_">
					<g id="XMLID_91_">
						<polygon style="fill:#AF9059;" points="427.365,333.475 432.253,328.35 432.078,322.086 433.368,321.364 434.295,322.933 
							435.617,317.68 439.116,315.072 444.577,316.881 447.872,321.885 445.489,327.214 439.923,331.283 433.529,338.59 						"/>
					</g>
					<g id="XMLID_90_">
						<polygon style="fill:#5D6C7E;" points="425.657,329.083 378.911,381.626 351.165,382.877 356.46,426.902 393.161,410.531 
							403.183,403.578 439.995,337.252 						"/>
					</g>
				</g>
				<g>
					<g id="XMLID_88_">
						<polygon style="fill:#3F3428;" points="350.833,717.755 350.833,723.713 366.109,731.351 373.747,723.713 366.109,716.074 
							365.124,716.074 364.878,717.755 						"/>
					</g>
					<g id="XMLID_87_">
						<polygon style="fill:#3F3428;" points="313.211,716.074 312.156,716.074 304.518,723.713 312.156,731.351 327.433,723.713 
							327.433,717.755 313.388,717.755 						"/>
					</g>
					<g>
						<g id="XMLID_86_">
							<path style="fill:#5D6C7E;" d="M313.427,491.677c2.011-10.175,3.582-19.565,3.726-24.658
								c0.433-15.317,2.361-65.906,2.361-65.906l9.349-19.35l1.726,0.017c-0.124-0.015-0.248-0.03-0.372-0.045
								c0.406,0.048-0.195-3.74-0.34-4.074c-8.129-0.277-18.604,4.308-23.732,10.696c-3.794,4.727-6.049,10.506-8.247,16.183
								c-6.188,15.986-8.995,30.796-12.082,47.605c-1.969,10.718-3.787,21.387-5.218,32.026
								c-1.586,11.784-2.703,23.534-3.027,35.214c-0.036,1.291-0.292,4.902-0.435,9.216c-0.301,9.036-0.108,21.123,3.633,21.575
								c0.7,0.085,1.376-0.231,1.992-0.535c4.813-2.378,8.604-5.482,12.848-8.195l0.228-47.136L313.427,491.677z"/>
						</g>
						<g id="XMLID_85_">
							<path style="fill:#5D6C7E;" d="M399.414,540.122c-0.957-10.031-1.95-20.059-3.164-30.062
								c-2.42-19.951-5.715-39.854-11.289-59.168c-2.129-7.378-4.586-14.654-7.042-21.926c-2.991-8.856-5.981-17.712-8.972-26.569
								c-3.717-11.007-9.989-18.761-20.973-22.611c-1.962-0.688-4.026-1.218-6.155-1.607c-0.052,0.228-0.099,0.458-0.128,0.701
								c-0.127,1.057-0.424,2.229-1.082,2.996l7.209,0.07c0,0,20.34,72.286,21.087,84.745c0.284,4.736,1.229,15.074,2.281,25.965
								l11.045,1.654l0.474,41.658c0.618,0.181,1.234,0.356,1.844,0.52c3.505,0.946,6.355,3.543,9.267,5.58
								C398.115,545.078,400,546.27,399.414,540.122z"/>
						</g>
						<g id="XMLID_84_">
							<path style="fill:#5D6C7E;" d="M371.185,492.657c1.664,17.236,3.594,35.857,3.594,35.857s-8.93,0.215-21.848,1.194
								c0.956-0.023,1.911-0.048,2.866-0.057c8.985-0.081,18.304,3.801,26.906,6.318l-0.474-41.658L371.185,492.657z"/>
						</g>
						<g id="XMLID_83_">
							<path style="fill:#5D6C7E;" d="M310.894,534.95c-6.159,0.326-6.925-0.834-6.925-0.834s5.557-22.697,9.458-42.439
								l-17.589,2.634l-0.228,47.136c1.492-0.953,3.039-1.86,4.707-2.668C303.66,537.161,307.231,535.927,310.894,534.95z"/>
						</g>
						<g>
							<path style="fill:#524A48;" d="M382.704,535.969c-8.602-2.516-17.922-6.398-26.907-6.317
								c-0.954,0.008-1.91,0.034-2.866,0.057c-0.799,0.061-1.614,0.124-2.443,0.191c-6.021,0.484-12.786,1.131-19.848,1.988
								c-0.347,0.042-0.692,0.083-1.041,0.126c-9.033,1.966-14.898,2.735-18.707,2.937c-3.663,0.977-7.234,2.211-10.577,3.83
								c-1.669,0.808-3.215,1.714-4.708,2.668l-0.047,9.815l17.222,166.718h14.121v1.698h0.081l15.526-111.827l0.064-0.63
								l8.506,112.457h0.081v-1.698h14.189l17.997-125.228L382.704,535.969z"/>
						</g>
						<g>
							<path style="fill:#FFFFFF;" d="M371.185,492.657c-1.051-10.891-1.996-21.229-2.281-25.965
								c-0.747-12.459-21.087-84.745-21.087-84.745l-7.209-0.07c-0.079,0.092-0.161,0.182-0.251,0.261
								c-0.223,0.197-0.479,0.351-0.775,0.451c-0.589,0.197-1.228,0.125-1.844,0.051c-2.383-0.287-4.766-0.573-7.15-0.86
								l-1.726-0.017l-9.349,19.35c0,0-1.928,50.589-2.361,65.906c-0.144,5.093-1.715,14.484-3.726,24.658
								c-3.902,19.743-9.458,42.439-9.458,42.439s0.766,1.16,6.925,0.834c3.808-0.202,9.673-0.971,18.707-2.937
								c0.348-0.043,0.694-0.084,1.04-0.126c7.062-0.857,13.827-1.504,19.848-1.988c0.829-0.067,1.644-0.13,2.443-0.191
								c12.918-0.98,21.847-1.194,21.847-1.194S372.849,509.893,371.185,492.657z"/>
						</g>
					</g>
				</g>
				<g id="XMLID_80_">
					<g id="XMLID_82_">
						<polygon style="fill:#AF9059;" points="347.269,480.407 352.913,484.61 358.994,483.553 359.869,484.75 358.464,485.905 
							363.758,486.498 366.765,489.655 365.731,495.41 361.294,499.43 355.784,497.78 351.077,492.746 343.106,487.334 						"/>
					</g>
					<g id="XMLID_81_">
						<polygon style="fill:#5D6C7E;" points="352.244,480.171 322.337,456.041 319.89,393.75 296.069,417.929 291.728,458.027 
							297.581,473.148 348.178,494.203 						"/>
					</g>
				</g>
				<g>
					<g>
						<path style="fill:#353131;" d="M353.677,335.684c1.809,3.648,2.561,7.782,2.531,11.868c-0.008,1.086,0.002,2.342,0.831,3.027
							c0.888,0.733,0.001,2.194,0.749,1.314c0.748-0.88,3.293-3.938,3.458-5.089c0.388-2.696,0.523-5.43,0.401-8.153
							c-0.106-2.368-0.454-4.854-1.879-6.729c-0.845-1.112-2.007-1.923-3.151-2.711c-1.66-1.142-3.371-2.296-5.32-2.772
							c-3.359-0.82-5.501,0.308-2.631,2.87C350.724,331.143,352.437,333.184,353.677,335.684z"/>
					</g>
					<g>
						<g>
							<path style="fill:#AF9059;" d="M330.262,380.848c4.643,0.688,9.286,1.376,13.928,2.063c0.917-4.061,1.545-8.202,1.874-12.371
								c4.099-0.496,8.946-1.582,10.554-5.837c0.507-1.341,0.597-2.823,0.681-4.273c0.347-5.994,0.694-11.989,1.041-17.983
								c0.12-2.073,0.233-4.21-0.368-6.171c-1.055-3.442-4.066-5.617-7.056-7.044c-7.629-3.64-16.718-3.987-24.143,0.233
								c-1.976,1.123-3.862,2.602-5.073,4.681c-1.867,3.205-1.859,7.283-1.787,11.098c0.066,3.521,0.132,7.043,0.198,10.564
								c0.076,4.05,0.437,8.726,3.41,11.019c1.579,1.217,3.682,1.536,5.018,3.074C330.894,372.615,329.526,377.15,330.262,380.848z"
								/>
						</g>
					</g>
					<g>
						<path style="fill:#353131;" d="M358.849,358.115c-0.01-1.115-0.322-4.399-2.07-2.437c-0.457,0.513-0.602,1.264-0.664,1.976
							c-0.063,0.712-0.068,1.447-0.323,2.107c-0.585,1.514-2.297,2.128-3.79,2.022c-0.593-0.042-1.194-0.173-1.704-0.504
							c-0.495-0.322-0.876-0.813-1.247-1.294c-0.902-1.169-1.804-2.338-2.706-3.507c-1.551-2.009-4.861-1.349-7.097-1.171
							c-2.576,0.206-5.177,0.857-7.354,2.46c-0.22,0.162-0.435,0.333-0.651,0.503c-0.527,0.416-1.055,0.827-1.656,1.086
							c-2.026,0.875-4.422-0.274-5.715-2.177c-0.592-0.872-1.13-1.983-2.109-2.175c-0.766-0.15-1.545,0.373-1.978,1.086
							c-0.433,0.714-0.584,1.583-0.68,2.431c-0.352,3.087-0.094,6.303,1.087,9.12c2.561,6.107,8.059,7.129,13.628,7.287
							c2.201,0.062,4.403,0.125,6.604,0.187c4.025,0.114,8.282,0.167,11.789-2.032c3.093-1.94,5.049-5.411,5.966-9.106
							C358.652,362.069,358.866,360.086,358.849,358.115z M343.714,365.789c-2.19,1.337-4.527,1.292-6.85,0.447
							c-0.987-0.36-0.475-2.049,0.514-1.689c1.925,0.701,3.772,0.782,5.595-0.331C343.89,363.655,344.626,365.232,343.714,365.789z"
							/>
					</g>
					<g>
						<path style="fill:#353131;" d="M361.334,325.665c0.462-1.433,0.824-2.899,1.082-4.384c-1.385,0.414-2.873,0.466-4.283,0.148
							c0.04-0.862,0.081-1.725,0.121-2.587c0.03-0.717-9.485-1.719-10.257-1.825c-7.226-0.985-13.834-1.909-20.597,1.708
							c-5.777,3.09-9.627,7.954-10.82,14.485c-1.14,6.24,0.466,14.552,3.775,19.953c0.064-1.674-0.682-5.669-0.214-7.238
							c0.318-1.581,0.937-3.088,1.756-4.467c1.634-2.753,4.065-5.016,6.819-6.576c4.391-2.488,9.409-3.663,14.383-4.103
							c4.558-0.404,10.103-0.707,14.512,0.747c2.119,0.699,2.448,1.266,3.861-0.872c0.249-0.377,2.299-4.823,2.121-4.835
							C362.841,325.767,362.087,325.716,361.334,325.665z"/>
					</g>
				</g>
			</g>
		</g>
		<g>
			<g>
				
					<ellipse transform="matrix(0.7071 -0.7071 0.7071 0.7071 -223.2052 503.8145)" style="fill:#578BBE;" cx="496.555" cy="521.34" rx="140.655" ry="140.655"/>
			</g>
			<path style="fill:#96B344;" d="M530.099,384.721c2.508,0.614,4.99,1.292,7.443,2.038L530.099,384.721z"/>
			<g>
				<path style="fill:#A2BD44;" d="M534.17,396.784c0.603,0.185,1.203,0.375,1.803,0.568c0.179-0.13,0.358-0.26,0.537-0.39
					C535.669,396.962,534.903,396.89,534.17,396.784z"/>
				<path style="fill:#A2BD44;" d="M527.274,403.674c4.324,0,10.799,7.181,14.123,4.953c4.573-3.066,3.444-5.933,4.683-7.547
					c-3.302-1.376-6.673-2.62-10.106-3.727C533.073,399.46,530.174,401.567,527.274,403.674z"/>
				<path style="fill:#A2BD44;" d="M534.17,396.784c-1.367-0.418-2.743-0.815-4.128-1.19
					C531.263,396.134,532.612,396.56,534.17,396.784z"/>
				<path style="opacity:0.07;fill:#FFFFFF;" d="M609.124,456.573c-6.4-11.111-14.392-21.188-23.659-29.928
					c-0.124-0.117-0.253-0.23-0.378-0.347c-0.934-0.874-1.878-1.738-2.838-2.585c-0.138-0.121-0.279-0.238-0.417-0.359
					c-0.961-0.841-1.932-1.67-2.917-2.483c-0.115-0.094-0.231-0.185-0.346-0.279c-1.021-0.836-2.053-1.659-3.1-2.464
					c-0.076-0.059-0.155-0.116-0.231-0.174c-1.092-0.837-2.198-1.658-3.318-2.461c-0.037-0.026-0.074-0.052-0.111-0.078
					c-1.163-0.832-2.34-1.646-3.531-2.44c-0.003-0.002-0.006-0.004-0.008-0.006c-2.435-1.625-4.929-3.169-7.475-4.63l-0.001-0.001v0
					c-13.753-7.895-29.077-13.355-45.391-15.801l0,0c0,0-0.001,0-0.002,0c-0.947-0.142-1.896-0.277-2.85-0.398
					c-0.535-0.07-1.074-0.129-1.612-0.192c-0.619-0.071-1.236-0.151-1.858-0.213l-0.004,0v0c-2.616-0.262-5.256-0.441-7.916-0.547v0
					h-0.002c-0.574-0.023-1.151-0.04-1.727-0.055c-1.179-0.035-2.361-0.06-3.548-0.06c-1.025,0-2.048,0.015-3.067,0.039
					c-0.382,0.009-0.762,0.024-1.143,0.036c-0.619,0.02-1.237,0.042-1.854,0.07c-0.49,0.022-0.979,0.048-1.467,0.076
					c-0.473,0.027-0.946,0.058-1.418,0.09c-0.582,0.039-1.162,0.08-1.741,0.127c-0.266,0.022-0.531,0.047-0.796,0.071
					c-3.375,0.294-6.711,0.716-10.007,1.262c-0.001,0-0.001,0-0.001,0l-0.001,0c-0.876,0.145-1.75,0.298-2.62,0.46l0,0
					c-0.003,0.001-0.005,0.001-0.008,0.002c-1.124,0.21-2.242,0.435-3.355,0.673c-0.043,0.009-0.085,0.019-0.128,0.028
					c-1.079,0.232-2.153,0.478-3.222,0.737c-0.06,0.014-0.119,0.029-0.178,0.044c-1.057,0.258-2.11,0.528-3.157,0.811
					c-0.06,0.016-0.119,0.032-0.179,0.048c-1.056,0.287-2.106,0.587-3.152,0.9c-0.042,0.013-0.085,0.025-0.127,0.038
					c-1.077,0.324-2.149,0.66-3.214,1.01c-0.004,0.001-0.008,0.003-0.013,0.004c-11.937,3.928-23.113,9.531-33.251,16.531
					c-0.001,0-0.002,0.001-0.002,0.001l-0.001,0.001c-34.121,23.559-56.485,62.93-56.485,107.531
					c0,29.966,10.1,57.569,27.072,79.606c-11.037-19.161-17.352-41.387-17.352-65.087c0-39.423,17.47-74.766,45.089-98.71
					c0.205-0.178,0.414-0.35,0.62-0.526c0.552-0.472,1.104-0.944,1.664-1.407c0.317-0.262,0.639-0.518,0.958-0.778
					c0.456-0.37,0.912-0.741,1.373-1.106c0.348-0.274,0.699-0.544,1.05-0.815c0.441-0.341,0.883-0.683,1.329-1.019
					c0.362-0.273,0.729-0.542,1.094-0.812c0.441-0.325,0.882-0.648,1.327-0.968c0.374-0.269,0.75-0.534,1.127-0.799
					c0.445-0.312,0.892-0.622,1.341-0.929c0.38-0.26,0.761-0.518,1.143-0.774c0.456-0.305,0.915-0.605,1.374-0.904
					c0.382-0.249,0.764-0.497,1.149-0.741c0.472-0.3,0.947-0.594,1.423-0.888c0.378-0.234,0.756-0.469,1.137-0.699
					c0.503-0.303,1.01-0.6,1.517-0.897c0.359-0.21,0.716-0.423,1.078-0.63c0.587-0.336,1.18-0.664,1.772-0.991
					c0.287-0.159,0.572-0.322,0.861-0.479c0.874-0.474,1.754-0.938,2.639-1.393c0.268-0.137,0.539-0.268,0.808-0.404
					c0.632-0.319,1.264-0.637,1.902-0.945c0.361-0.175,0.726-0.343,1.089-0.514c0.551-0.26,1.101-0.52,1.656-0.773
					c0.394-0.18,0.792-0.354,1.189-0.53c0.53-0.235,1.061-0.469,1.595-0.698c0.411-0.176,0.824-0.347,1.237-0.518
					c0.526-0.218,1.053-0.435,1.582-0.646c0.42-0.168,0.842-0.333,1.264-0.497c0.532-0.206,1.065-0.409,1.6-0.608
					c0.421-0.157,0.843-0.313,1.266-0.465c0.544-0.197,1.091-0.388,1.639-0.577c0.419-0.145,0.837-0.29,1.258-0.431
					c0.565-0.189,1.134-0.371,1.703-0.553c0.406-0.129,0.811-0.261,1.219-0.387c0.615-0.189,1.234-0.37,1.854-0.551
					c0.365-0.107,0.728-0.217,1.094-0.321c0.792-0.224,1.588-0.437,2.386-0.646c0.197-0.052,0.393-0.108,0.59-0.159
					c0.994-0.255,1.993-0.499,2.996-0.731c0.307-0.071,0.617-0.135,0.924-0.204c0.703-0.157,1.405-0.314,2.112-0.46
					c0.392-0.081,0.785-0.155,1.178-0.232c0.627-0.123,1.253-0.247,1.883-0.361c0.427-0.077,0.855-0.149,1.283-0.222
					c0.601-0.103,1.203-0.204,1.807-0.299c0.443-0.069,0.888-0.135,1.333-0.2c0.595-0.087,1.191-0.171,1.788-0.25
					c0.45-0.059,0.9-0.116,1.351-0.171c0.601-0.073,1.204-0.142,1.807-0.207c0.448-0.048,0.896-0.096,1.344-0.139
					c0.616-0.06,1.233-0.113,1.852-0.164c0.44-0.036,0.88-0.074,1.321-0.106c0.643-0.047,1.288-0.085,1.934-0.122
					c0.418-0.024,0.835-0.052,1.254-0.072c0.713-0.034,1.429-0.058,2.144-0.081c0.354-0.011,0.707-0.028,1.062-0.037
					c1.071-0.026,2.144-0.041,3.222-0.041c0.274,0,0.546,0.01,0.82,0.012l0,0c19.431,0.12,37.856,4.476,54.392,12.204
					c0.166,0.078,0.33,0.16,0.496,0.239c0.837,0.395,1.669,0.799,2.496,1.212c0.358,0.178,0.713,0.361,1.068,0.542
					c0.652,0.333,1.3,0.671,1.945,1.014c0.36,0.192,0.721,0.383,1.08,0.578c0.768,0.418,1.532,0.845,2.291,1.278
					c0.296,0.169,0.591,0.336,0.885,0.507c0.812,0.471,1.617,0.952,2.418,1.44c0.375,0.229,0.746,0.462,1.119,0.695
					c0.568,0.354,1.132,0.712,1.694,1.074c0.387,0.25,0.774,0.5,1.158,0.754c0.612,0.404,1.218,0.816,1.823,1.23
					c0.3,0.205,0.603,0.406,0.9,0.614l0,0C591.19,436.65,600.954,445.965,609.124,456.573z"/>
			</g>
			<g>
				<path style="fill:#BED386;" d="M495.358,393.803c-0.067,0-0.124,0.001-0.193,0.001
					C495.242,393.804,495.305,393.803,495.358,393.803z"/>
				<g>
					<path style="fill:#BED386;" d="M545.984,389.625c-3.73-0.491-7.631-0.509-11.945,0.175c1.749-1.228,2.87-2.232,3.504-3.042
						c-2.453-0.746-4.935-1.425-7.443-2.038c-0.182,0.057-0.362,0.116-0.538,0.177c-3.399,1.191-3.897,1.315-3.34,3.462
						c-1.321-0.532-2.584-1.146-3.747-1.86h-16.284c10.315,11.409-9.681,10.656-16.984,10.678c-1.336,0.004-1.647-2.672-0.886-3.374
						c0.351-0.325,8.592-0.022,7.037-0.001c6.647-0.01,5.813-0.535,5.813-7.303c-6.608,4.873-6.378,0-13.875,0
						c-7.03,0-10.479,0.387-16.645,3.159c2.008,1.711,4.016,3.422,6.024,5.132c-2.529-0.573-10.776-3.808-13.03-2.848
						c-1.049,0.447-1.32,3.243-2.617,3.243c-5.238,0-19.491,2.865-19.491-3.142c0-0.027-0.095-0.052-0.259-0.074
						c-12.932,5.533-24.862,12.95-35.455,21.902c6.778-1.117,13.897-0.723,15.3-0.723c0.625,0,4.931,11.117,4.972,11.973
						c0.233,4.85-3.075,6.768-5.527,11.378c-4.464,8.395-6.436,19.391-5.937,28.819c0.018,0.341,5.622,5.384,5.622,7.383
						c0,8.369,0.877,8.504,6.626,14.671v-10.265c3.428,8.987,7.572,12.446,10.668,21.239c3.513,9.978,17.397,2.314,22.114,8.887
						c2.078,2.895,5.953,1.567,7.804,4.393l5.023,7.667c3.027,4.621,6.719,3.019,12.13,3.019c5.196,0-4.73,17.955-4.73,19.468
						c0,6.225,8.498,20.397,8.445,22.89c-0.158,7.391,9.072,8.428,14.083,12.98c4.013,3.671,1.152,14.071,1.027,18.683
						c-0.106,3.888,0.732,7.378,1.92,10.732l0,0l0,0.002c1.094,3.086,2.481,6.06,3.726,9.114c0.217,0.535,0.432,1.071,0.637,1.612
						c0.09,0.236,0.173,0.476,0.26,0.714c0.166,0.453,0.327,0.907,0.48,1.366c0.084,0.253,0.165,0.507,0.245,0.762
						c0.149,0.476,0.288,0.958,0.419,1.443c0.063,0.231,0.128,0.46,0.186,0.693c0.178,0.716,0.34,1.439,0.469,2.178
						c0.658,3.784-0.796,7.864,0.046,11.489c0.865,3.724,4.061,6.043,4.014,10.159c-0.073,6.359,17.806,7.553,21.269,7.553
						c-0.016-0.01-13.051-6.769-13.051-5.958c0-6.034,3.105-5.615,3.107-9.295c0.002-4.372-3.968-7.973-1.489-14.159
						c2.68-6.689,2.377-6.486,9.626-6.486c-0.146-3.075-0.614-6.102-1.405-9.081c6.477-10.095,21.547-19.81,25.536-22.533
						c5.418-3.704,2.384-13.697,4.728-19.022c2.06-4.68,8.305-9.003,8.606-14.761c0.016-0.305,0.008-0.59-0.014-0.864
						c-0.005-0.068-0.018-0.13-0.026-0.196c-0.024-0.208-0.057-0.408-0.102-0.598c-0.013-0.055-0.029-0.107-0.044-0.16
						c-0.055-0.2-0.121-0.391-0.199-0.571c-0.013-0.029-0.025-0.058-0.038-0.086c-0.095-0.207-0.202-0.402-0.324-0.583v0l0,0
						c-1.252-1.857-3.848-2.376-6.115-2.3c-3.201,0.108-3.52-5.247-5.941-5.247c-6.731,0-13.716-1.146-19.546-5.464
						c-0.966-0.715-2.047-9.304-3.696-11.432c-2.363-3.049-9.916,2.305-12.852-1.842c-1.11-1.568-3.733-7.714-5.524-7.714
						c-2.44,0-15.878-2.613-18.703-0.057c0.435-0.393-4.586-1.917-5.299-1.917c0.307,0-17.27,9.104-17.27,4.377
						c0-6.129,2.989-14.05-4.28-14.05c-11.685,0-1.744-3.038-1.744-8.391c0-6.866-11.315,1.884-17.277,1.891
						c0.158,0-6.712-11.267-3.419-11.267c2.365,0,2.734-4.817,4.488-6.868c4.615-5.395,12.497-5.961,18.044-4.945
						c2.246,0.411,10.389,9.857,10.412,11.805c-0.005-0.464,3.319-2.589,3.768-3.278c1.605-2.462,0.698-3.524,1.1-5.989
						c1.346-8.274,1.688-9.911,8.289-14.94c4.85-3.695,11.629-7.938,15.435-12.72c2.904-3.649,5.621-5.544,9.841-7.618
						c-0.431,0.212,4.009,2.705,4.939,2.705c3.816,0,4.737-3.225,6.827-6.12h-6.626c7.48-5.72-6.059-8.686,8.935-8.686
						c7.364,0,8.045,0.101,12.549-5.133c-7.163,0-5.421-0.047-5.421-7.342c0-1.215-2.025-5.669-3.957-3.77
						c-5.284,5.195-5.094-0.951-7.407-4.406c-2.991-4.467-6.218,0.131-7.466,2.839c-1.548,3.358-14.26,8.609-14.232,12.995
						c0.016,2.568-4.182,2.465-4.104-0.399c0.116-4.3-14.742-8.408-14.987-10.086c-0.323-2.216,7.354-8.189,14.031-8.189
						c3.067,0,1.566-3.553,2.511-3.553c6.362,0,13.862-1.977,17.34-7.107c-0.869,0-9.036,0.059-9.036-0.042
						c0-2.916-1.246-4.695,2.097-4.695c7.846,0,10.171,6.12,18.786,6.12c-3.079,2.237-6.157,4.474-9.236,6.712
						c4.323,0,10.799,7.181,14.123,4.953c6.137-4.113,2-7.874,7.103-8.721c0.546,0.574,1.281,1.126,2.503,1.558
						c1.595,0.564,7.339,1.59,8.315,3.047c1.176,1.756,4.165,12.159,1.969,13.064c-3.565,1.468-14.007,12.781-6.02,15.605
						c6.173,2.182,7.756-0.57,13.248-4.006c5.105-3.194,6.495-2.021,12.243,0.012c0.052,0.018,5.97-0.196,8.186,0.587
						c4.849,1.715,4.495-1.348,5.004-1.168c2.022,0.715,5.921,1.229,8.459,0.12C587.252,411.416,567.92,397.861,545.984,389.625z"/>
					<path style="fill:#BED386;" d="M487.605,487.548c-0.95,0.953-1.9,1.905-2.85,2.858c8.861,0,14.255,2.858,22.116,2.858
						C501.596,484.998,497.461,487.548,487.605,487.548z"/>
					<path style="fill:#BED386;" d="M516.847,494.705c-7.112-0.215-7.443,0.864-11.8,5.732c3.748,0,7.496,0.011,11.244,0.015
						C519.542,500.455,519.091,494.772,516.847,494.705z"/>
					<path style="fill:#BED386;" d="M526.936,502.118C526.936,492.146,516.793,502.118,526.936,502.118L526.936,502.118z"/>
				</g>
			</g>
			<g style="opacity:0.08;">
				<path d="M570.144,401.291c14.007,21.868,22.129,47.867,22.129,75.763c0,77.681-62.973,140.655-140.655,140.655
					c-26.979,0-52.18-7.602-73.589-20.771c24.997,39.026,68.741,64.892,118.526,64.892c77.681,0,140.655-62.973,140.655-140.655
					C637.21,470.471,610.378,426.041,570.144,401.291z"/>
			</g>
		</g>
		<g>
			<path style="fill:#E48A29;" d="M290.335,183.17c-0.012,6.592-1.001,13.173-2.971,18.918c-2.744,8.003-7.268,15.35-13.114,21.461
				c-11.951,12.493-29.03,19.376-46.283,18.973c-4.405-0.103-8.898-0.991-13.118-2.214c-8.321-2.412-16.063-6.689-22.599-12.369
				c-12.897-11.207-20.783-27.713-20.782-44.857c0-17.574,7.959-34.524,21.465-45.766c6.557-5.458,14.277-9.481,22.516-11.703
				c21.442-5.783,44.5,0.93,59.491,17.34c5.622,6.154,9.932,13.48,12.554,21.393C289.398,170.094,290.346,176.637,290.335,183.17z"
				/>
			<path style="fill:#E48A29;" d="M213.376,122.354c5.172-0.643,19.329-2.031,32.879-0.055c0.917,0.134,1.627-0.788,1.276-1.645
				l-16.582-40.51c-0.408-0.996-1.819-0.996-2.226,0l-16.603,40.56C211.771,121.555,212.464,122.468,213.376,122.354z"/>
			<path style="fill:#E48A29;" d="M252.345,123.907c4.666,2.322,17.234,8.985,27.437,18.117c0.69,0.618,1.791,0.242,1.972-0.667
				l8.556-42.928c0.21-1.056-0.966-1.835-1.856-1.23l-36.245,24.639C251.449,122.354,251.522,123.497,252.345,123.907z"/>
			<path style="fill:#E48A29;" d="M284.518,147.744c2.278,4.688,8.164,17.637,10.67,31.099c0.169,0.911,1.271,1.285,1.969,0.676
				l32.984-28.776c0.811-0.708,0.355-2.043-0.719-2.107l-43.749-2.614C284.756,145.967,284.116,146.917,284.518,147.744z"/>
			<path style="fill:#E48A29;" d="M294.392,185.978c-0.736,5.16-3.11,19.185-8.571,31.742c-0.369,0.85,0.334,1.776,1.253,1.663
				l43.441-5.376c1.068-0.132,1.438-1.493,0.584-2.148l-34.786-26.659C295.584,184.639,294.522,185.068,294.392,185.978z"/>
			<path style="fill:#E48A29;" d="M278.815,224.813c-3.956,3.393-14.989,12.372-27.374,18.211c-0.838,0.395-0.92,1.556-0.154,2.076
				l36.203,24.604c0.89,0.605,2.066-0.174,1.855-1.23l-8.572-42.98C280.594,224.592,279.513,224.214,278.815,224.813z"/>
			<path style="fill:#E48A29;" d="M206.17,124.057c-4.323,2.912-15.911,11.16-24.833,21.548c-0.604,0.703-1.744,0.474-2.042-0.403
				L165.2,103.761c-0.347-1.019,0.717-1.945,1.679-1.462l39.155,19.689C206.856,122.401,206.933,123.544,206.17,124.057z"/>
			<path style="fill:#E48A29;" d="M176.794,150.758c-2.187,4.731-7.822,17.792-10.067,31.299c-0.152,0.914-1.246,1.309-1.956,0.714
				l-33.534-28.133c-0.824-0.692-0.395-2.035,0.678-2.12l43.69-3.458C176.522,148.986,177.18,149.923,176.794,150.758z"/>
			<path style="fill:#E48A29;" d="M166.405,188.723c1.236,5.063,4.965,18.79,11.624,30.755c0.45,0.809-0.159,1.8-1.085,1.777
				l-43.758-1.116c-1.076-0.027-1.577-1.346-0.79-2.081l32.022-29.923C165.088,187.507,166.187,187.83,166.405,188.723z"/>
			<path style="fill:#E48A29;" d="M182.022,224.813c3.956,3.393,14.989,12.372,27.374,18.211c0.838,0.395,0.92,1.556,0.154,2.076
				l-36.203,24.604c-0.89,0.605-2.066-0.174-1.856-1.23l8.572-42.98C180.243,224.592,181.324,224.214,182.022,224.813z"/>
			<path style="fill:#E48A29;" d="M247.201,244.675c-5.17,0.657-19.323,2.085-32.878,0.146c-0.917-0.131-1.624,0.793-1.271,1.649
				l16.695,40.464c0.411,0.995,1.821,0.991,2.226-0.006l16.489-40.606C248.808,245.469,248.113,244.559,247.201,244.675z"/>
		</g>
		<g>
			<g>
				<g>
					<polygon style="fill:#486362;" points="565.688,400.207 609.813,440.717 626.288,487.296 638.177,484.606 628.008,426.105 
						565.492,386.119 					"/>
				</g>
			</g>
			<g>
				<polygon style="fill:#DBBB92;" points="628.721,484.311 636.411,482.207 641.368,494.507 635.856,500.743 628.796,499.523 
					630.193,493.363 628.751,493.758 627.715,495.617 625.867,494.547 				"/>
			</g>
		</g>
		<g>
			<g id="XMLID_77_">
				<g id="XMLID_79_">
					<polygon style="fill:#486362;" points="172.534,721.49 171.876,728.336 158.017,734.273 152.074,726.973 159.333,720.581 
						173.192,714.644 					"/>
				</g>
				<g id="XMLID_78_">
					<polygon style="fill:#5B687F;" points="184.109,582.74 173.437,719.331 160.083,721.146 149.03,604.728 139.891,567.793 					
						"/>
				</g>
			</g>
			<g id="XMLID_74_">
				<g id="XMLID_76_">
					<polygon style="fill:#5B687F;" points="216.045,546.896 224.051,709.204 211.869,711.497 186.488,588.683 172.525,553.122 
											"/>
				</g>
				<g id="XMLID_75_">
					<polygon style="fill:#486362;" points="212.952,716.869 227.425,721.295 232.713,713.15 224.827,707.484 211.653,709.963 					
						"/>
				</g>
			</g>
			<g id="XMLID_73_">
				<path style="fill:#BAD3DD;" d="M198.821,371.594c-9.864-8.166-33.645-3.471-46.156-3.471c1.204,0-11.858,69.843-12.272,75.935
					c-1.507,22.208-8.389,44.672-17.885,65.006c-4.004,8.573-8.776,16.842-11.623,25.866c-4.717,14.953-4.705,32.568-3.371,48.045
					c13.428,3.69,26.005,10.603,39.815,12.394c11.361,1.473,22.835-0.616,34.247-1.626c13.495-1.194,27.085-0.876,40.593-1.914
					c13.508-1.038,27.162-3.521,39.119-9.892c-5.347-10.347-9.465-21.279-12.891-32.397c-3.402-11.04-7.779-23.301-9.021-34.814
					c-1.122-10.4-1.305-20.983-2.819-31.527c-1.76-12.267-3.876-24.493-6.814-36.537c-3.36-13.773-7.794-27.284-13.237-40.374
					c-4.144-9.966-9.089-26.288-16.875-33.959C199.373,372.071,199.103,371.827,198.821,371.594z"/>
			</g>
			<g id="XMLID_69_">
				<g id="XMLID_72_">
					<path style="fill:#393027;" d="M177.866,333.838c6.249,1.137,13.953,6.477,15.459,13.068c0.725,3.174-0.309,6.098,0.603,9.465
						c1.771,6.645-6.268,16.433,1.69,21.051c4.09,2.374,9.202,1.605,13.856,0.763c0.564-0.102,1.155-0.215,1.601-0.575
						c0.735-0.592,0.858-1.701,0.58-2.603c-0.279-0.902-0.876-1.664-1.399-2.45c-5.469-8.223-4.144-20.018-6.27-29.383
						c-2.122-9.347-7.144-18.656-16.403-22.492c-4.616,2.991-7.973,7.863-9.123,13.242L177.866,333.838z"/>
				</g>
				<g id="XMLID_71_">
					<path style="fill:#DEC19A;" d="M185.706,374.077c6.012-2.572,9.995-8.692,11.304-15.099c1.309-6.406,0.272-13.076-1.498-19.37
						c-5.891-20.947-32.179-14.947-38.309,2.966C151.861,358.184,168.226,381.553,185.706,374.077z"/>
				</g>
				<g id="XMLID_70_">
					<path style="fill:#393027;" d="M155.1,385.6c2.951-1.835,5.845-3.755,7.555-7.182c2.764-5.538,1.598-14.143,1.928-20.151
						c0.345-6.333,0.922-13.234,5.264-17.856c2.836-3.019,6.324-3.848,10.264-4.249c2.698-0.275,2.889,0.738,5.049-0.907
						c1.656-1.261,2.868-4.707,3.106-6.682c0.403-3.331-1.207-6.671-3.587-9.036c-3.663-3.64-7.773-5.251-12.798-4.934
						c-17.636,1.114-29.959,12.678-33.454,30.3c-1.68,8.47,0.872,17.523-0.994,25.695c-1.152,5.046-4.02,8.587-4.849,13.926
						c-2.152,13.854-8.168,31.851-6.4,45.836c0.065,0.517,0.176,1.088,0.594,1.399c0.852,0.634,1.966-0.322,2.588-1.183
						c3.63-5.028,7.261-10.056,10.891-15.085c1.426-1.974,2.869-3.983,3.695-6.273c2.057-5.704,0.145-12.692,3.694-17.609
						C149.584,388.926,152.366,387.3,155.1,385.6z"/>
				</g>
			</g>
			<g id="XMLID_65_">
				<g id="XMLID_67_">
					<g id="XMLID_68_">
						<path style="fill:#DEC19A;" d="M173.502,506.737c3.215,1.533,12.656,1.526,15.51-1.044c6.588-5.932-5.087-6.68-9.065-7.845
							c0.829-1.268,1.669-2.468,2.227-3.845c0.511-1.262-12.29-1.046-13.769-0.106c-3.549,2.257-2.897,4.851-3.658,8.699
							C167.688,503.904,170.589,505.346,173.502,506.737z"/>
					</g>
				</g>
				<g id="XMLID_66_">
					<polygon style="fill:#BAD3DD;" points="124.49,403.105 100.539,459.836 162,507.874 170.896,490.22 131.68,454.919 
						152.074,415.033 150.715,390.807 					"/>
				</g>
			</g>
		</g>
		<g>
			<path style="fill:#6B5A55;" d="M201.462,446.799c0,0-18.497,26.745-19.755,95.108l17.946,0.929c0,0-2.74-59.915,11.141-93.028
				L201.462,446.799z"/>
			<g>
				<path style="fill:#6E9C8C;" d="M295.93,349.476c0,0-61.262,8.058-85.518,34.938c-24.256,26.881-7.365,67.996-7.365,67.996
					s42.628,12.593,66.884-14.288C294.187,411.241,295.93,349.476,295.93,349.476z"/>
				<path style="fill:#667F72;" d="M203.047,452.41c0,0,2.459,0.721,6.505,1.45l51.887-66.161l-60.5,58.389
					C202.078,450.037,203.047,452.41,203.047,452.41z"/>
			</g>
			<g>
				<path style="fill:#6E9C8C;" d="M100.646,396.624c0,0,7.398,54.645,31.47,76.201c24.072,21.556,60.707,6.342,60.707,6.342
					s11.094-38.086-12.978-59.642C155.774,397.969,100.646,396.624,100.646,396.624z"/>
				<path style="fill:#667F72;" d="M192.824,479.166c0,0,0.635-2.197,1.272-5.81l-59.221-46.082l52.314,53.795
					C190.71,480.04,192.824,479.166,192.824,479.166z"/>
			</g>
			<path style="fill:#629182;" d="M203.047,452.41c0,0,66.446-8.441,87.204-60.04C290.251,392.37,280.074,474.228,203.047,452.41z"
				/>
		</g>
		<g>
			<path style="fill:#6B5A55;" d="M755.507,630.265c0,0,16.569,27.981,13.011,96.262l-17.967-0.337c0,0,6.951-59.574-4.564-93.582
				L755.507,630.265z"/>
			<g>
				<path style="fill:#6E9C8C;" d="M668.125,526.532c0,0,60.542,12.35,82.846,40.872c22.304,28.522,2.56,68.346,2.56,68.346
					s-43.409,9.561-65.712-18.961C665.515,588.267,668.125,526.532,668.125,526.532z"/>
				<path style="fill:#667F72;" d="M753.53,635.75c0,0-2.504,0.546-6.591,0.989l-47.101-69.65l56.24,62.503
					C754.664,633.451,753.53,635.75,753.53,635.75z"/>
			</g>
			<g>
				<path style="fill:#6E9C8C;" d="M859.604,587.311c0,0-11.227,53.989-36.757,73.797c-25.53,19.808-61.003,2.053-61.003,2.053
					s-8.385-38.772,17.145-58.58C804.519,584.772,859.604,587.311,859.604,587.311z"/>
				<path style="fill:#667F72;" d="M761.845,663.16c0,0-0.479-2.236-0.86-5.885l62.318-41.799l-55.971,49.979
					C763.892,664.18,761.845,663.16,761.845,663.16z"/>
			</g>
			<path style="fill:#629182;" d="M753.53,635.75c0,0-65.687-13.097-82.761-66.03C670.77,569.72,675.159,652.091,753.53,635.75z"/>
		</g>
		<g>
			<polygon style="fill:#B1BCC8;" points="436.878,394.768 461.596,394.768 455.661,219.223 442.813,219.223 			"/>
			<g>
				<g>
					<path style="fill:#B1BCC8;" d="M427.193,108.085l-0.019-0.092c0.01,0.014,0.018,0.028,0.028,0.042
						c0.003-0.017,0.006-0.033,0.009-0.05l0.019,0.092c27.598,41.148,27.789,111.866,27.789,111.866l-4.823,0.982l-0.037,0.007
						l-4.823,0.982C445.335,221.914,417.872,156.746,427.193,108.085z"/>
					<path style="fill:#B6C4CC;" d="M427.179,108.161l22.951,112.776l-4.795,0.976C445.335,221.914,417.902,156.814,427.179,108.161
						z"/>
				</g>
				<g>
					<path style="fill:#B1BCC8;" d="M559.332,257.5l0.089,0.03c-0.017,0.001-0.034,0.002-0.051,0.003
						c0.013,0.011,0.026,0.022,0.039,0.033l-0.089-0.03c-49.434,3.326-110.773-31.867-110.773-31.867l1.561-4.668l0.012-0.035
						l1.561-4.668C451.683,216.297,521.851,225.098,559.332,257.5z"/>
					<path style="fill:#B6C4CC;" d="M559.273,257.45L450.13,220.938l1.552-4.641C451.683,216.297,521.778,225.089,559.273,257.45z"
						/>
				</g>
				<g>
					<path style="fill:#B1BCC8;" d="M363.866,297.228l-0.07,0.062c0.007-0.015,0.015-0.03,0.023-0.045
						c-0.016,0.006-0.032,0.012-0.048,0.017l0.07-0.062c21.836-44.474,82.984-79.998,82.984-79.998l3.262,3.686l0.025,0.028
						l3.262,3.686C453.373,224.602,410.668,280.97,363.866,297.228z"/>
					<path style="fill:#B6C4CC;" d="M363.939,297.202l86.192-76.264l3.243,3.665C453.373,224.602,410.712,280.91,363.939,297.202z"
						/>
				</g>
				<path style="fill:#CFD8DD;" d="M461.239,218.677c-1.243-6.109-7.204-10.054-13.313-8.811
					c-6.109,1.243-10.054,7.204-8.811,13.313c1.243,6.109,7.204,10.054,13.313,8.811
					C458.538,230.747,462.482,224.787,461.239,218.677z"/>
			</g>
		</g>
	</g>
</g>
</svg>
